<svg enable-background="new 0 0 439.4 184.6" viewBox="0 0 439.4 184.6" xmlns="http://www.w3.org/2000/svg"><path clip-rule="evenodd" d="m90.8 110.3-2.5-36.5 6.2-2.3 16.1 34.9z" fill="#441b15" fill-rule="evenodd"/><path clip-rule="evenodd" d="m109.2 111.9-9.7 4.6-6.9-4.5 17.9-3.5z" fill="#441b15" fill-rule="evenodd"/><path clip-rule="evenodd" d="m82.5 133.5 7.9-20.5 8.1 5.3.7 10.9z" fill="#441b15" fill-rule="evenodd"/><path clip-rule="evenodd" d="m95.9 134.2-7.4-.1 9.2-2.4z" fill="#441b15" fill-rule="evenodd"/><path clip-rule="evenodd" d="m84.1 138.9-1.6-2.9 13.1.2.9 4.2z" fill="#441b15" fill-rule="evenodd"/><path clip-rule="evenodd" d="m88.2 149.5-3.9 32.3-16.8-12-13.4-44.6 8.3-31.2 25.8 8.2.7 9.1-9.2 23.7 3.1 5.8 12.7 1.5z" fill="#441b15" fill-rule="evenodd"/><path clip-rule="evenodd" d="m62.1 182.6-21.2-27.7-13.8-55.2 16.6-29.7 15.6 9.2 1.4 13.4-8.7 32.6 13.6 45.5.1.3 16.3 11.6z" fill="#441b15" fill-rule="evenodd"/><path clip-rule="evenodd" d="m88.1 100-25.4-8-1.3-12.6 24.9-5z" fill="#441b15" fill-rule="evenodd"/><path clip-rule="evenodd" d="m113.2 107.1-17.1-37 5.5-25 .1-.1-5.2-29.8-21.7-11.2-74.8-4 7.9 31.2 33.7 29.9.7 7.3-17.2 30.6-.2.4 14.1 56.2v.2l22.1 28.8h25l4-34.1 8.8-8.6-1.4-6.5 3.8-5.1-.8-12 10.3-4.9z" fill="#441b15" fill-rule="evenodd"/><path clip-rule="evenodd" d="m73.9 6 17.7 36.1-89-40zm25.3 123.2-11.9-8.2 3.1-8 8.1 5.3zm-53.6-60.4 40.7 3.5 5.8-28-4.4-.5-3.6 10.2-3.8 1.5-1 9.2 1.9.6-.6 1.9-17.4-5.2zm54-23.9-5.4 24.5-5.6 2.1 5.9-28.3zm-8.8 65.4 19.8-3.9-22.3-32.6zm-36.7 14.9 34.2-23 .6 9.2-9.2 23.6 3 5.8 12.7 1.5-28 27.4z" fill="#f6a300" fill-rule="evenodd"/><path clip-rule="evenodd" d="m88.5 134.1 9.3-2.4-1.8 2.5zm-47.6 20.8 24.8 16.1 16.3 11.6h-19.9zm-13.8-55.2 24.9 25.5-17.6 3.8zm65.5 12.3 17.9-3.5-1.3 3.5-9.7 4.6z" fill="#bb4c18" fill-rule="evenodd"/><path clip-rule="evenodd" d="m82.5 133.5 4.8-12.5 11.9 8.2zm-5.7-126.2 17.8 9.2 4.9 28.4-5.2-1.7zm-13.5 31.8 28.4 3-89-40zm23.1 33.2-25.9 5.2-14.9-8.7zm-25 7.1 24.9-5 1.8 25.6-25.4-8zm26.9-5.6 6.2-2.3 16.1 34.9zm-20.8 96 20.7-20.3-3.8 32.3zm15-33.8 1.5 2.9 12.4 1.5-.9-4.2z" fill="#ffe700" fill-rule="evenodd"/><path clip-rule="evenodd" d="m54.1 125.2 34.2-23-25.9-8.2zm-51.4-123 60.6 37-20.8 20-32.8-29.1zm40.9 58.8 20.4-19.8 21.7 2.3-3.2 8.8-38.3 14.9zm-16.5 38.7 24.9 25.5 13.7 45.8-24.8-16.2-6.5-25.9 17.6-3.8 8.8-32.5-1.4-13.5-15.7-9.1z" fill="#ed6c0b" fill-rule="evenodd"/><g fill="#441b15"><path clip-rule="evenodd" d="m438.5 78.7v-7.4l-1.1 2.6-1.3 2.9h-.6c0-.1-.1-.3-.2-.6s-.2-.6-.4-.9c-.1-.3-.3-.6-.4-.9s-.2-.5-.3-.6l-1.1-2.6h-.1v7.3h-.9v-9.6h.9c0 .1.1.2.2.4s.2.4.3.6.2.5.3.7.2.5.3.7.2.5.3.6c.1.2.1.3.2.4l1.1 2.7 1.1-2.7 1.5-3.6h.9v9.6h-.7zm-18.6 39.1-6.3.8v-30.2h7v-5.6h-7v-13.7h-6.4v13.7h-4.4v5.6h4.4v31.6c0 1.4.6 2.7 1.6 3.6.9.8 2 1.2 3.1 1.2.2 0 7.9-1 7.9-1v-6zm-120.1-47.3v29.9l12.6-3.1v-26.8zm0 54.5h-6.4v-55.4c0-4.6 2.8-5 3.6-5h16.7c2.7 0 5 2.2 5 5v27.9c0 2.4-1.8 4.7-4.2 5.3l-14.8 3.7v18.5zm64-48.3h-6.4v-7.6h6.4zm0 48.3h-6.4v-42.2h6.4zm-32.7-5.7h12v-30.9h-12zm13.2 5.6h-14.4c-2.7 0-4.8-2.2-4.8-4.8v-32.5c0-2.7 2.1-4.8 4.8-4.8h14.4c2.7 0 4.8 2.2 4.8 4.8v32.4c0 2.7-2.1 4.9-4.8 4.9zm52-41c-1.1-.9-2.5-1.2-4-.8l-13.2 3.3v-3.7h-6.4v42.3h6.4v-32.4l12.6-3.1v35.5h6.4v-37.4c-.1-1.5-.7-2.8-1.8-3.7zm-208.1 33.9-6.3.8v-30.2h7.1v-5.6h-7.1v-13.7h-6.3v13.7h-4.3v5.6h4.3v31.6c0 1.4.6 2.7 1.6 3.6.9.8 2 1.2 3.1 1.2.2 0 7.9-1 7.9-1zm77.6 1.3h12.6v-29.9l-12.6 3.1zm15.3 5.9h-16.7c-2.7 0-5-2.2-5-5v-27.9c0-2.5 1.8-4.7 4.2-5.3l14.8-3.7v-21.2h6.3v58.1c0 4.7-2.8 5-3.6 5zm-31.2-41.1c-1.1-.9-2.5-1.2-4-.8l-13.2 3.3v-3.7h-6.4v42.3h6.4v-32.4l12.6-3.1v35.5h6.3v-37.4c0-1.5-.6-2.8-1.7-3.7zm-50.1 35.4h12.9v-15l-12.9 3.2zm15.4 5.6h-16.7c-2.6 0-4.8-2.2-4.8-4.8v-12.7c0-2.4 1.7-4.6 4-5.2l14.9-3.7v-10.1h-14.9v-5.6h16.1c2.7 0 4.8 2.2 4.8 4.8v32.4c.1 4.5-2.6 4.9-3.4 4.9zm-53.5.1h-17.2v-5.9h15.9v-21.6l-14.1-4c-2.3-.7-4-3-4-5.4v-18.5c0-2.7 2.2-5 5-5h17.2v5.9h-15.9v17.5l14.1 4c2.3.7 4 3 4 5.4v22.6c0 2.8-2.2 5-5 5zm267.3-55.1v8.8h-.9v-8.8h-2.3v-.8h5.4v.8z" fill-rule="evenodd"/><path d="m195.7 154v-15.4h5.3c1.2 0 2.1.1 2.7.2.9.2 1.6.6 2.3 1.1.8.7 1.4 1.6 1.8 2.6.4 1.1.6 2.3.6 3.7 0 1.2-.1 2.2-.4 3.1s-.6 1.6-1 2.2-.9 1.1-1.4 1.4-1.1.6-1.8.8-1.5.3-2.5.3zm2.1-1.8h3.3c1 0 1.8-.1 2.4-.3s1-.5 1.4-.8c.5-.5.9-1.1 1.1-1.9.3-.8.4-1.8.4-3 0-1.6-.3-2.8-.8-3.7s-1.2-1.4-1.9-1.7c-.5-.2-1.4-.3-2.6-.3h-3.2v11.7z"/><path d="m218.6 150.5 2 .2c-.3 1.1-.9 2-1.7 2.6s-1.9.9-3.2.9c-1.6 0-2.9-.5-3.9-1.5s-1.4-2.4-1.4-4.2c0-1.9.5-3.3 1.5-4.4 1-1 2.2-1.6 3.8-1.6 1.5 0 2.7.5 3.6 1.5s1.4 2.4 1.4 4.3v.5h-8.3c.1 1.2.4 2.2 1 2.8.6.7 1.4 1 2.3 1 .7 0 1.3-.2 1.8-.5.4-.3.8-.8 1.1-1.6zm-6.2-3.1h6.2c-.1-.9-.3-1.6-.7-2.1-.6-.7-1.4-1.1-2.3-1.1s-1.6.3-2.2.9-.9 1.3-1 2.3z"/><path d="m222.2 150.7 1.9-.3c.1.7.4 1.3.9 1.7s1.1.6 2 .6 1.5-.2 1.9-.5c.4-.4.6-.8.6-1.2s-.2-.8-.6-1c-.3-.2-.9-.4-1.9-.6-1.4-.3-2.3-.7-2.9-.9-.5-.3-.9-.6-1.2-1.1-.3-.4-.4-.9-.4-1.5 0-.5.1-1 .3-1.4s.5-.8.9-1.1c.3-.2.7-.4 1.2-.6s1.1-.2 1.6-.2c.9 0 1.6.1 2.3.4s1.2.6 1.5 1 .5 1 .7 1.7l-1.8.3c-.1-.6-.3-1-.7-1.3s-1-.5-1.7-.5c-.9 0-1.5.1-1.9.4s-.6.6-.6 1c0 .2.1.5.2.7.2.2.4.4.7.5.2.1.7.2 1.7.5 1.3.4 2.3.6 2.8.9.5.2.9.6 1.2 1s.5 1 .5 1.6-.2 1.2-.5 1.8c-.4.6-.9 1-1.6 1.3s-1.5.5-2.4.5c-1.4 0-2.5-.3-3.3-.9-.7-.7-1.2-1.6-1.4-2.8z"/><path d="m233.7 140.8v-2.2h1.9v2.2zm0 13.2v-11.1h1.9v11.1z"/><path d="m238.1 155 1.8.3c.1.6.3 1 .6 1.2.5.3 1.1.5 1.9.5.9 0 1.5-.2 2-.5.5-.4.8-.8 1-1.5.1-.4.1-1.2.1-2.4-.8 1-1.8 1.5-3.1 1.5-1.5 0-2.7-.6-3.6-1.7-.8-1.1-1.3-2.4-1.3-4 0-1.1.2-2 .6-2.9s.9-1.6 1.7-2.1c.7-.5 1.6-.7 2.6-.7 1.3 0 2.4.5 3.3 1.6v-1.3h1.7v9.6c0 1.7-.2 3-.5 3.7-.4.7-.9 1.3-1.7 1.7s-1.7.6-2.8.6c-1.3 0-2.4-.3-3.2-.9s-1.1-1.5-1.1-2.7zm1.5-6.7c0 1.5.3 2.5.9 3.2s1.3 1 2.2 1 1.6-.3 2.2-1 .9-1.7.9-3.1-.3-2.4-.9-3.1-1.3-1-2.2-1c-.8 0-1.5.3-2.1 1-.7.6-1 1.6-1 3z"/><path d="m250.4 154v-11.1h1.7v1.6c.8-1.2 2-1.8 3.5-1.8.7 0 1.3.1 1.8.4.6.2 1 .6 1.3.9.3.4.5.9.6 1.4.1.3.1 1 .1 1.8v6.8h-1.9v-6.8c0-.8-.1-1.3-.2-1.7s-.4-.7-.8-.9-.8-.3-1.3-.3c-.8 0-1.5.3-2.1.8s-.9 1.5-.9 2.9v6.1h-1.8z"/><path d="m277.1 152.2c-.6.7-1.3 1.2-2 1.6-.7.3-1.5.5-2.4.5-1.6 0-2.8-.5-3.7-1.6-.7-.9-1.1-1.8-1.1-2.9 0-1 .3-1.8.9-2.6s1.5-1.4 2.7-2c-.7-.8-1.2-1.4-1.4-1.9s-.3-1-.3-1.4c0-.9.4-1.7 1.1-2.4s1.6-1 2.7-1c1 0 1.9.3 2.6 1 .7.6 1 1.4 1 2.3 0 1.5-1 2.7-2.9 3.7l2.8 3.5c.3-.6.6-1.3.7-2.1l2 .4c-.3 1.3-.8 2.4-1.4 3.3.7.9 1.5 1.7 2.4 2.4l-1.3 1.5c-.8-.6-1.6-1.3-2.4-2.3zm-1.2-1.5-3.5-4.3c-1 .6-1.7 1.2-2.1 1.7s-.5 1-.5 1.5c0 .6.3 1.3.7 1.9.5.7 1.2 1 2.1 1 .6 0 1.2-.2 1.8-.5.6-.2 1.1-.7 1.5-1.3zm-2.7-6.5c.8-.5 1.3-.9 1.6-1.3.2-.4.4-.8.4-1.2 0-.5-.2-1-.5-1.3s-.7-.5-1.2-.5-.9.2-1.3.5c-.3.3-.5.7-.5 1.2 0 .2.1.5.2.7.1.3.3.5.5.8z"/><path d="m288.6 158.3v-15.4h1.7v1.4c.4-.6.9-1 1.4-1.3s1.1-.4 1.9-.4c1 0 1.8.2 2.5.7s1.3 1.2 1.6 2.1c.4.9.6 1.9.6 2.9 0 1.1-.2 2.2-.6 3.1s-1 1.6-1.8 2.1-1.6.7-2.5.7c-.6 0-1.2-.1-1.7-.4s-.9-.6-1.2-1v5.4h-1.9zm1.7-9.8c0 1.4.3 2.5.9 3.2s1.3 1 2.1 1 1.6-.4 2.2-1.1.9-1.8.9-3.3c0-1.4-.3-2.5-.9-3.2s-1.3-1.1-2.1-1.1-1.5.4-2.1 1.1c-.7.9-1 2-1 3.4z"/><path d="m300.5 154v-11.1h1.7v1.7c.4-.8.8-1.3 1.2-1.6s.8-.4 1.2-.4c.6 0 1.3.2 1.9.6l-.6 1.7c-.5-.3-.9-.4-1.4-.4-.4 0-.8.1-1.1.4s-.6.6-.7 1c-.2.7-.3 1.4-.3 2.2v5.8h-1.9z"/><path d="m306.9 148.5c0-2.1.6-3.6 1.7-4.6 1-.8 2.1-1.2 3.5-1.2 1.5 0 2.8.5 3.7 1.5 1 1 1.5 2.4 1.5 4.2 0 1.4-.2 2.6-.6 3.4s-1.1 1.5-1.9 1.9c-.8.5-1.7.7-2.7.7-1.6 0-2.8-.5-3.8-1.5-.9-1.1-1.4-2.5-1.4-4.4zm2 0c0 1.4.3 2.5.9 3.2s1.4 1.1 2.3 1.1 1.7-.4 2.3-1.1.9-1.8.9-3.3c0-1.4-.3-2.4-.9-3.1s-1.4-1.1-2.3-1.1-1.7.4-2.3 1.1-.9 1.7-.9 3.2z"/><path d="m326.8 154v-1.4c-.7 1.1-1.7 1.7-3.1 1.7-.9 0-1.7-.2-2.5-.7-.7-.5-1.3-1.2-1.7-2-.4-.9-.6-1.9-.6-3s.2-2.1.6-3 .9-1.6 1.7-2.1c.7-.5 1.6-.7 2.5-.7.7 0 1.3.1 1.8.4s.9.7 1.3 1.1v-5.5h1.9v15.2zm-6-5.5c0 1.4.3 2.5.9 3.2s1.3 1.1 2.1 1.1 1.5-.3 2.1-1 .9-1.7.9-3.1c0-1.5-.3-2.6-.9-3.4-.6-.7-1.3-1.1-2.2-1.1-.8 0-1.5.3-2.1 1-.5.7-.8 1.8-.8 3.3z"/><path d="m338.8 154v-1.6c-.9 1.3-2 1.9-3.5 1.9-.7 0-1.3-.1-1.8-.4-.6-.2-1-.6-1.3-.9-.3-.4-.5-.8-.6-1.4-.1-.4-.1-1-.1-1.8v-6.9h1.9v6.2c0 1 0 1.7.1 2 .1.5.4.9.8 1.2s.9.4 1.4.4c.6 0 1.1-.1 1.6-.4s.9-.7 1.1-1.2.3-1.2.3-2.2v-6h1.9v11.1z"/><path d="m350.7 150 1.9.2c-.2 1.3-.7 2.3-1.6 3-.8.7-1.9 1.1-3.1 1.1-1.5 0-2.7-.5-3.7-1.5-.9-1-1.4-2.4-1.4-4.3 0-1.2.2-2.3.6-3.2s1-1.6 1.8-2c.8-.5 1.7-.7 2.7-.7 1.2 0 2.2.3 3 .9s1.3 1.5 1.5 2.6l-1.8.3c-.2-.8-.5-1.3-.9-1.7s-1-.6-1.6-.6c-1 0-1.7.3-2.3 1s-.9 1.8-.9 3.2c0 1.5.3 2.6.9 3.3s1.3 1 2.2 1c.7 0 1.4-.2 1.9-.7.4-.3.7-1 .8-1.9z"/><path d="m358.3 152.4.3 1.7c-.5.1-1 .2-1.4.2-.7 0-1.2-.1-1.6-.3s-.6-.5-.8-.9-.2-1.1-.2-2.2v-6.4h-1.4v-1.5h1.4v-2.8l1.9-1.1v3.9h1.9v1.5h-1.9v6.5c0 .5 0 .9.1 1 .1.2.2.3.3.4s.4.1.6.1c.2-.1.5-.1.8-.1z"/><path d="m360.2 140.8v-2.2h1.9v2.2zm0 13.2v-11.1h1.9v11.1z"/><path d="m364.2 148.5c0-2.1.6-3.6 1.7-4.6 1-.8 2.1-1.2 3.5-1.2 1.5 0 2.8.5 3.7 1.5 1 1 1.5 2.4 1.5 4.2 0 1.4-.2 2.6-.6 3.4s-1.1 1.5-1.9 1.9c-.8.5-1.7.7-2.7.7-1.6 0-2.8-.5-3.8-1.5-.9-1.1-1.4-2.5-1.4-4.4zm2 0c0 1.4.3 2.5.9 3.2s1.4 1.1 2.4 1.1c.9 0 1.7-.4 2.3-1.1s.9-1.8.9-3.3c0-1.4-.3-2.4-.9-3.1s-1.4-1.1-2.3-1.1-1.7.4-2.4 1.1c-.6.7-.9 1.7-.9 3.2z"/><path d="m376.9 154v-11.1h1.7v1.6c.8-1.2 2-1.8 3.5-1.8.7 0 1.3.1 1.8.4.6.2 1 .6 1.3.9.3.4.5.9.6 1.4.1.3.1 1 .1 1.8v6.8h-1.9v-6.8c0-.8-.1-1.3-.2-1.7s-.4-.7-.8-.9-.8-.3-1.3-.3c-.8 0-1.5.3-2.1.8s-.9 1.5-.9 2.9v6.1h-1.8z"/></g></svg>