<svg enable-background="new 0 0 18.9 18.9" viewBox="0 0 18.9 18.9" xmlns="http://www.w3.org/2000/svg"><path d="m17.9 1c-.7-.7-1.5-1-2.5-1h-11.9c-.9 0-1.8.3-2.5 1s-1 1.6-1 2.5v11.8c0 1 .3 1.8 1 2.5s1.5 1 2.5 1h11.8c1 0 1.8-.3 2.5-1s1-1.5 1-2.5v-11.8c.1-.9-.2-1.8-.9-2.5zm-2.4 13.3c-.2.4-.6.7-1.2 1s-1.1.4-1.6.4c-.1 0-.3 0-.4 0s-.3 0-.4-.1c-.1 0-.2-.1-.4-.1-.2-.1-.3-.1-.4-.1s-.2-.1-.4-.2-.3-.1-.4-.1c-1.3-.5-2.7-1.4-3.9-2.7-1.3-1.3-2.2-2.6-2.7-3.9 0 0-.1-.2-.1-.4 0-.1-.1-.3-.1-.3 0-.1-.1-.2-.1-.4-.1-.2-.1-.3-.2-.4 0-.1 0-.2-.1-.4 0-.1 0-.3 0-.4 0-.5.1-1 .4-1.6s.6-1 1-1.2c.5-.2.9-.2 1.3-.2h.2s.1.1.2.2.2.3.3.5.2.4.3.6.2.4.3.5c.1.2.2.3.2.4 0 0 .1.1.2.2s.1.2.2.3c0 .1.1.2.1.3s-.1.3-.3.4c-.2.2-.4.4-.6.5-.2.2-.4.3-.5.5-.2.2-.3.3-.3.4v.2c0 .1.1.1.1.2 0 0 .1.1.1.2.1.1.1.1.1.2.5.8 1 1.5 1.6 2.1s1.3 1.1 2.1 1.6c0 0 .1.1.2.1.1.1.2.1.2.1s.1.1.2.1h.2c.1 0 .3-.1.5-.4s.5-.5.7-.8.4-.4.6-.4c.1 0 .2 0 .3.1.1 0 .2.1.3.2s.2.1.2.2l.7.4c.4.2.8.4 1.1.6s.4.3.5.4v.2c0 .2-.1.6-.3 1z" fill="#666"/></svg>