<svg enable-background="new 0 0 31.2 25.5" viewBox="0 0 31.2 25.5" xmlns="http://www.w3.org/2000/svg"><path d="m11.6 25.5c-1.3 0-2.7-.1-4.1-.3-2.5-.4-4.9-1.7-5.7-2.1l-1.8-1 2-.7c2.2-.7 3.5-1.2 5.2-1.9-1.6-.8-2.9-2.2-3.5-4.1l-.5-1.4.4.1c-.4-.4-.6-.7-.9-1.1-.8-1.2-1.2-2.7-1.1-3.9l.1-1.2.7.3c-.3-.6-.5-1.2-.7-1.8-.3-1.7 0-3.4.8-4.8l.6-1.2.9 1c2.7 3.3 6.2 5.2 10.2 5.8-.2-1.2 0-2.3.4-3.3.5-1.2 1.3-2.1 2.5-2.8 1.3-.8 2.8-1.2 4.3-1.1 1.6.1 3.1.7 4.2 1.7.6-.1 1-.3 1.6-.5.3-.1.7-.3 1.2-.4l1.8-.6-1.2 3.3h.2l1.9-.1-1.1 1.5c0 .1 0 .2-.1.2-.1.1-.2.3-1.7 2.4-.4.5-.6 1.2-.5 1.9.1 2.7-.2 5.1-1 7.2-.7 2-1.9 3.7-3.4 5.1-1.9 1.7-4.3 2.9-7.2 3.5-1.4.2-2.9.3-4.5.3z" fill="#666"/></svg>